<svg xmlns="http://www.w3.org/2000/svg" xmlns:xlink="http://www.w3.org/1999/xlink" width="1.7em" height="1.8em" viewBox="0 0 50 55" version="1.1">
          <g id="surface1">
            <path style=" stroke:none;fill-rule:nonzero;fill-opacity:1;" d="M 23.316406 0.117188 C 22.25 0.71875 21.15625 1.480469 20.199219 2.289062 C 19.386719 2.972656 18.535156 3.816406 17.863281 4.601562 L 17.648438 4.847656 L 17.648438 27.871094 L 17.613281 27.878906 C 17.589844 27.882812 14.644531 28.5 11.058594 29.25 C 7.472656 30 4.523438 30.617188 4.507812 30.625 C 4.480469 30.636719 4.429688 30.734375 4.320312 30.992188 C 3.71875 32.375 3.285156 33.792969 3.007812 35.277344 C 2.890625 35.902344 2.761719 36.859375 2.789062 36.886719 C 2.792969 36.894531 6.136719 36.199219 10.210938 35.347656 C 14.289062 34.492188 17.628906 33.800781 17.636719 33.808594 C 17.644531 33.8125 17.648438 35.492188 17.648438 37.53125 L 17.640625 41.246094 L 9.691406 42.90625 C 5.320312 43.820312 1.730469 44.574219 1.71875 44.582031 C 1.675781 44.605469 1.316406 45.46875 1.09375 46.070312 C 0.648438 47.292969 0.300781 48.675781 0.109375 49.976562 C 0.0585938 50.324219 -0.00390625 50.839844 0.00390625 50.847656 C 0.015625 50.859375 16.800781 47.34375 17.023438 47.285156 C 18.058594 47.003906 19.050781 46.359375 19.726562 45.527344 C 19.878906 45.339844 19.839844 45.394531 21.699219 42.683594 C 22.863281 40.984375 23.121094 40.605469 23.214844 40.410156 C 23.398438 40.054688 23.484375 39.753906 23.515625 39.359375 C 23.527344 39.242188 23.535156 37.871094 23.535156 35.863281 C 23.535156 32.734375 23.535156 32.5625 23.5625 32.554688 C 23.578125 32.550781 24.886719 32.277344 26.464844 31.945312 C 28.046875 31.617188 29.359375 31.34375 29.378906 31.335938 L 29.417969 31.328125 L 29.417969 43.164062 L 29.464844 43.15625 C 29.488281 43.152344 33.734375 42.265625 38.902344 41.183594 L 48.296875 39.214844 L 48.4375 38.886719 C 49.234375 37.058594 49.734375 35.207031 49.964844 33.246094 C 49.984375 33.085938 50 32.949219 49.996094 32.945312 C 49.992188 32.941406 46.695312 33.632812 42.667969 34.472656 C 38.640625 35.316406 35.335938 36.007812 35.320312 36.007812 C 35.304688 36.007812 35.300781 35.511719 35.300781 33.054688 C 35.300781 30.257812 35.300781 30.101562 35.328125 30.09375 C 35.34375 30.089844 38.257812 29.480469 41.800781 28.738281 C 45.34375 28 48.253906 27.390625 48.269531 27.386719 C 48.308594 27.375 48.546875 26.832031 48.792969 26.1875 C 49.378906 24.652344 49.769531 23.070312 49.964844 21.410156 C 49.984375 21.253906 49.996094 21.121094 49.992188 21.117188 C 49.984375 21.109375 35.433594 24.144531 35.328125 24.171875 C 35.300781 24.179688 35.300781 23.667969 35.300781 13.542969 C 35.300781 6.5 35.296875 2.902344 35.285156 2.902344 C 35.257812 2.902344 34.65625 3.257812 34.308594 3.472656 C 33.34375 4.078125 32.414062 4.777344 31.535156 5.554688 C 30.953125 6.066406 30.121094 6.914062 29.578125 7.550781 L 29.417969 7.738281 L 29.417969 25.40625 L 29.339844 25.425781 C 29.292969 25.433594 27.988281 25.707031 26.433594 26.035156 C 24.878906 26.359375 23.589844 26.628906 23.570312 26.632812 L 23.535156 26.640625 L 23.53125 13.320312 L 23.523438 0 Z M 23.316406 0.117188 "></path>
            <path style=" stroke:none;fill-rule:nonzero;fill-opacity:1;" d="M 40.617188 46.734375 C 35.496094 47.808594 31.265625 48.695312 31.210938 48.707031 L 31.113281 48.730469 L 31.003906 48.976562 C 30.28125 50.617188 29.773438 52.382812 29.519531 54.132812 C 29.460938 54.535156 29.410156 54.984375 29.417969 54.992188 C 29.421875 55 48.046875 51.109375 48.261719 51.058594 C 48.289062 51.050781 48.320312 50.992188 48.414062 50.785156 C 49.183594 49.035156 49.703125 47.152344 49.941406 45.277344 C 49.964844 45.089844 49.988281 44.90625 49.992188 44.859375 C 50.003906 44.785156 50 44.785156 49.964844 44.785156 C 49.941406 44.785156 45.738281 45.664062 40.617188 46.734375 Z M 40.617188 46.734375 "></path>
          </g>
        </svg>